<?xml version="1.0" encoding="UTF-8" standalone="no"?>
<!-- Created with Inkscape (http://www.inkscape.org/) -->

<svg
   width="16"
   height="16"
   viewBox="0 0 4.2333332 4.2333333"
   version="1.1"
   id="svg1"
   xml:space="preserve"
   inkscape:version="1.3.2 (091e20ef0f, 2023-11-25, custom)"
   sodipodi:docname="wrench.svg"
   xmlns:inkscape="http://www.inkscape.org/namespaces/inkscape"
   xmlns:sodipodi="http://sodipodi.sourceforge.net/DTD/sodipodi-0.dtd"
   xmlns="http://www.w3.org/2000/svg"
   xmlns:svg="http://www.w3.org/2000/svg"><sodipodi:namedview
     id="namedview1"
     pagecolor="#ffffff"
     bordercolor="#000000"
     borderopacity="0.25"
     inkscape:showpageshadow="2"
     inkscape:pageopacity="0.0"
     inkscape:pagecheckerboard="0"
     inkscape:deskcolor="#d1d1d1"
     inkscape:document-units="mm"
     inkscape:zoom="16.168579"
     inkscape:cx="27.893608"
     inkscape:cy="-2.1337683"
     inkscape:window-width="1916"
     inkscape:window-height="1085"
     inkscape:window-x="3840"
     inkscape:window-y="84"
     inkscape:window-maximized="1"
     inkscape:current-layer="layer1" /><defs
     id="defs1" /><g
     inkscape:label="Layer 1"
     inkscape:groupmode="layer"
     id="layer1"><path
       style="fill:#000000;stroke:none;stroke-width:0;stroke-dasharray:none"
       d="m 0.50690397,1.2765264 0.3998854,0.1926166 c 0,0 0.35388463,-0.110101 0.29656503,-0.5260036 0.00428,0.0166325 -0.41425353,-0.2209813 -0.41425353,-0.2209813 0,0 0.1728178,-0.20058951 0.63911353,-0.009773 -5.451e-4,0.002048 0.2193597,0.0673465 0.2703168,0.5364022 -0.00185,0.00612 0.081143,0.2719536 0.2113569,0.3146725 0.00522,0.00468 2.323655,2.0212049 2.323655,2.0212049 l -7.673e-4,0.646049 -0.1379302,0.00373 -2.5562892,-2.2437162 c 0,0 -0.1093906,-0.121676 -0.4827559,-0.1287556 -2.772e-4,-0.00161 -0.26598793,-0.018374 -0.30754463,-0.1300272 -7.957e-4,0.00469 -0.3635337,-0.3901478 -0.2413519,-0.4554183 z"
       id="path8" /></g></svg>
